# xmcd
#
# Track frame offsets:
#	150
#	9021
#	15976
#	24871
#	37653
#	50141
#	56248
#	62759
#	73416
#	82767
#	100394
#	112871
#	121764
#	134201
#	144705
#
# Disc length: 1940 seconds
#
# Revision: 0
# Processed by: cddbd v1.5.2PL0 Copyright (c) Steve Scherf et al.
# Submitted via: dBpowerAMP V4.0
#
DISCID=c207920f
DTITLE=The Pond Brothers - The Pond Brothers
DYEAR=1900
DGENRE=Bluegrass
TTITLE0=Do Re Mi
TTITLE1=Kelly Dahl Coffee Cup Breakdown
TTITLE2=Ain't I Been Good to You
TTITLE3=Jack and Jill
TTITLE4=Love is Always There
TTITLE5=Pony Express
TTITLE6=Shuckin the Corn
TTITLE7=Molly and Tenbrooks
TTITLE8=Makes a Difference
TTITLE9=Hogeye>June Apple
TTITLE10=World on a Wheel
TTITLE11=I'll Never Love Anybody But You
TTITLE12=All I Got
TTITLE13=Elzic's Farewell
TTITLE14=Hidden Track
EXTD=
EXTT0=
EXTT1=
EXTT2=
EXTT3=
EXTT4=
EXTT5=
EXTT6=
EXTT7=
EXTT8=
EXTT9=
EXTT10=
EXTT11=
EXTT12=
EXTT13=
EXTT14=
PLAYORDER=
